<svg width="469" height="426" viewBox="0 0 469 426" fill="none" xmlns="http://www.w3.org/2000/svg">
<g clip-path="url(#clip0)">
<path d="M137.261 119.828C138.534 122.301 139.264 124.878 139.449 127.559C139.648 130.198 139.35 132.759 138.555 135.243C137.773 137.684 136.528 139.942 134.819 142.016C133.139 144.077 131.062 145.744 128.589 147.017C127.728 147.46 127.042 148.006 126.533 148.655C126.051 149.29 125.731 150 125.573 150.784C125.428 151.527 125.43 152.316 125.58 153.153C125.73 153.99 126.019 154.825 126.448 155.659L128.079 158.826L116.16 164.963L114.443 161.629C113.212 159.17 112.455 156.642 112.173 154.046C111.919 151.435 112.134 148.952 112.819 146.595C113.517 144.197 114.672 142.003 116.284 140.014C117.881 137.996 119.93 136.343 122.431 135.056C123.264 134.627 123.963 134.073 124.528 133.396C125.093 132.718 125.504 131.98 125.76 131.18C126.03 130.338 126.131 129.478 126.065 128.598C126.012 127.676 125.771 126.798 125.342 125.965C124.913 125.131 124.346 124.439 123.64 123.889C122.963 123.324 122.21 122.92 121.383 122.678C120.569 122.394 119.722 122.286 118.842 122.352C117.962 122.418 117.106 122.666 116.272 123.095L88.8916 137.193L82.7332 125.232L110.114 111.134C112.587 109.861 115.15 109.139 117.803 108.968C120.484 108.782 123.053 109.094 125.508 109.904C127.977 110.671 130.228 111.903 132.261 113.598C134.321 115.278 135.988 117.355 137.261 119.828ZM134.695 168.706C135.21 169.706 135.502 170.751 135.571 171.84C135.653 172.887 135.539 173.895 135.229 174.863C134.919 175.831 134.426 176.717 133.751 177.522C133.09 178.355 132.273 179.021 131.301 179.522C130.328 180.022 129.298 180.307 128.208 180.376C127.161 180.458 126.139 180.352 125.144 180.056C124.176 179.746 123.275 179.26 122.443 178.599C121.624 177.896 120.957 177.045 120.442 176.044C119.941 175.072 119.65 174.062 119.568 173.015C119.513 171.953 119.641 170.939 119.951 169.97C120.289 168.988 120.795 168.095 121.47 167.29C122.159 166.443 122.99 165.77 123.962 165.269C124.935 164.768 125.952 164.491 127.013 164.436C128.061 164.354 129.068 164.468 130.036 164.778C131.004 165.088 131.891 165.58 132.695 166.256C133.528 166.917 134.194 167.733 134.695 168.706Z" fill="black"/>
<path d="M364.937 151.955C363.655 154.424 361.974 156.508 359.893 158.21C357.855 159.898 355.592 161.135 353.106 161.922C350.663 162.695 348.1 162.984 345.42 162.789C342.767 162.609 340.206 161.878 337.738 160.596C336.878 160.15 336.036 159.906 335.212 159.866C334.416 159.839 333.652 159.988 332.92 160.313C332.231 160.624 331.588 161.082 330.991 161.688C330.395 162.294 329.881 163.013 329.449 163.845L327.807 167.006L315.909 160.828L317.637 157.5C318.933 155.074 320.558 152.995 322.513 151.264C324.496 149.547 326.647 148.287 328.965 147.484C331.326 146.668 333.784 146.342 336.339 146.507C338.909 146.644 341.442 147.361 343.938 148.657C344.77 149.089 345.626 149.34 346.505 149.409C347.385 149.478 348.225 149.386 349.025 149.133C349.868 148.866 350.629 148.452 351.309 147.889C352.03 147.313 352.607 146.609 353.039 145.777C353.471 144.945 353.708 144.082 353.75 143.188C353.819 142.309 353.713 141.461 353.432 140.646C353.193 139.818 352.792 139.064 352.23 138.385C351.667 137.705 350.97 137.149 350.138 136.717L322.806 122.525L329.006 110.585L356.338 124.778C358.806 126.06 360.877 127.734 362.55 129.8C364.252 131.881 365.482 134.157 366.241 136.628C367.042 139.087 367.338 141.635 367.13 144.273C366.95 146.926 366.219 149.487 364.937 151.955ZM323.57 178.116C323.051 179.115 322.367 179.957 321.518 180.643C320.711 181.315 319.823 181.805 318.854 182.111C317.885 182.418 316.877 182.528 315.83 182.442C314.769 182.384 313.753 182.103 312.782 181.599C311.811 181.095 310.983 180.418 310.297 179.569C309.625 178.762 309.121 177.867 308.787 176.884C308.48 175.914 308.356 174.899 308.414 173.838C308.514 172.763 308.824 171.727 309.342 170.728C309.846 169.758 310.502 168.936 311.309 168.263C312.144 167.605 313.045 167.123 314.015 166.816C315.011 166.524 316.033 166.421 317.08 166.507C318.169 166.579 319.199 166.868 320.17 167.372C321.141 167.876 321.955 168.545 322.613 169.38C323.286 170.187 323.775 171.075 324.082 172.044C324.389 173.013 324.499 174.021 324.413 175.068C324.355 176.129 324.074 177.145 323.57 178.116Z" fill="black"/>
<path d="M423.197 249.624C420.621 250.672 417.989 251.168 415.302 251.114C412.655 251.076 410.131 250.551 407.728 249.537C405.367 248.541 403.229 247.099 401.315 245.212C399.413 243.355 397.938 241.137 396.89 238.561C396.525 237.663 396.042 236.932 395.442 236.367C394.852 235.83 394.174 235.448 393.407 235.221C392.68 235.01 391.894 234.942 391.047 235.016C390.2 235.091 389.342 235.304 388.474 235.657L385.174 236.999L380.125 224.58L383.599 223.168C386.158 222.161 388.743 221.633 391.354 221.583C393.977 221.563 396.431 221.999 398.717 222.891C401.043 223.801 403.125 225.147 404.963 226.93C406.83 228.701 408.294 230.889 409.353 233.494C409.706 234.363 410.195 235.108 410.819 235.732C411.443 236.355 412.143 236.83 412.916 237.156C413.731 237.5 414.579 237.678 415.461 237.69C416.384 237.72 417.279 237.558 418.148 237.205C419.016 236.852 419.756 236.349 420.368 235.695C420.991 235.071 421.46 234.357 421.775 233.555C422.13 232.769 422.314 231.935 422.326 231.053C422.339 230.171 422.168 229.296 421.815 228.427L410.217 199.898L422.679 194.831L434.278 223.361C435.325 225.937 435.816 228.554 435.75 231.213C435.695 233.9 435.155 236.43 434.13 238.804C433.145 241.194 431.718 243.326 429.848 245.199C427.991 247.102 425.773 248.577 423.197 249.624ZM374.743 242.707C373.701 243.131 372.634 243.329 371.543 243.3C370.493 243.288 369.499 243.085 368.563 242.69C367.626 242.295 366.787 241.725 366.046 240.981C365.276 240.248 364.685 239.375 364.273 238.362C363.861 237.349 363.669 236.296 363.698 235.205C363.71 234.155 363.907 233.147 364.29 232.181C364.685 231.245 365.249 230.392 365.982 229.621C366.755 228.869 367.663 228.28 368.705 227.856C369.718 227.445 370.75 227.244 371.801 227.256C372.863 227.296 373.862 227.514 374.799 227.909C375.747 228.333 376.592 228.917 377.333 229.662C378.115 230.424 378.712 231.311 379.124 232.324C379.536 233.337 379.721 234.375 379.681 235.437C379.67 236.488 379.466 237.481 379.071 238.418C378.676 239.354 378.106 240.193 377.362 240.934C376.629 241.704 375.756 242.295 374.743 242.707Z" fill="black"/>
<line x1="194.353" y1="210.705" x2="205.965" y2="118.384" stroke="black" stroke-width="7"/>
<path d="M340.931 262.867C344.808 285.846 333.45 309.621 310.983 329.518C288.553 349.38 255.387 365.02 216.777 371.533C178.167 378.046 141.706 374.153 114.002 362.747C86.2505 351.322 67.7225 332.589 63.846 309.609C59.9695 286.63 71.3265 262.855 93.794 242.958C116.224 223.096 149.39 207.456 188 200.943C226.61 194.43 263.071 198.324 290.775 209.729C318.527 221.154 337.055 239.887 340.931 262.867Z" fill="white" stroke="black" stroke-width="6"/>
<line x1="301.491" y1="131.715" x2="208.967" y2="121.849" stroke="black" stroke-width="6"/>
<circle cx="289.739" cy="132.556" r="14.5" transform="rotate(-11.673 289.739 132.556)" fill="#FEFEFE" stroke="black" stroke-width="5"/>
<circle cx="138.668" cy="278.226" r="18.5" transform="rotate(-9.57531 138.668 278.226)" fill="#FF4500" stroke="black" stroke-width="3"/>
<path d="M273.676 259.261C273.358 269.474 264.821 277.495 254.609 277.177C244.397 276.859 236.376 268.322 236.694 258.11C236.774 255.527 237.347 254.052 238.092 253.177C238.819 252.322 239.899 251.817 241.51 251.593C243.148 251.365 245.152 251.452 247.545 251.639C248.114 251.684 248.705 251.734 249.313 251.786C251.203 251.947 253.263 252.123 255.387 252.189C257.511 252.255 259.577 252.208 261.474 252.165C262.084 252.151 262.677 252.138 263.248 252.128C265.648 252.09 267.653 252.128 269.274 252.457C270.868 252.782 271.915 253.353 272.587 254.251C273.276 255.171 273.756 256.679 273.676 259.261Z" fill="#FF4500" stroke="black" stroke-width="3"/>
<path d="M186.924 327.91C213.073 304.841 227.754 299.361 253.993 308.24" stroke="black" stroke-width="1.9874"/>
</g>
<defs>
<clipPath id="clip0">
<rect y="69.3828" width="414.096" height="361.422" transform="rotate(-9.57531 0 69.3828)" fill="white"/>
</clipPath>
</defs>
</svg>
